<?xml version="1.0" encoding="UTF-8"?>
<!-- Generator: visioncortex VTracer -->
<svg id="svg" version="1.1" xmlns="http://www.w3.org/2000/svg" style="display: block; background: rgb(255, 255, 255);" viewBox="0 0 482 567"><path d="M0 0 C7.93537144 3.19404227 16.39559377 3.8886286 24.82714844 4.92456055 C26.66304472 5.15906129 28.49157897 5.45399307 30.31225586 5.78662109 C36.25088013 6.63561497 42.28722999 6.33042927 48.26953125 6.27734375 C49.62562202 6.27038432 50.98171684 6.26417723 52.33781433 6.25868225 C58.06391076 6.2344028 63.78989732 6.19886398 69.51586914 6.15405273 C73.03174305 6.12705386 76.54755417 6.11015321 80.0635128 6.09918404 C82.03195979 6.09007545 84.00034454 6.06971297 85.96870422 6.04905701 C103.95103047 5.99917115 103.95103047 5.99917115 109 10.6875 C111.30719028 16.66522028 111.25493702 22.39020467 109.375 28.5 C103.78400136 36.18762313 96.0477185 40.3493093 87.6875 44.5 C85.66215355 45.52484324 83.63739297 46.55084528 81.61328125 47.578125 C80.72680908 48.0205957 79.84033691 48.46306641 78.92700195 48.91894531 C76.34215618 50.26713044 73.86291188 51.73144741 71.375 53.25 C61.50624912 58.95519578 51.51531262 64.30329052 41.27734375 69.31494141 C37.9674976 70.94182933 34.67223614 72.59773454 31.375 74.25 C35.26970563 74.92336904 39.16592933 75.58751584 43.0625 76.25 C44.16529297 76.44078125 45.26808594 76.6315625 46.40429688 76.828125 C48.0043457 77.09882813 48.0043457 77.09882813 49.63671875 77.375 C50.61600342 77.54257812 51.59528809 77.71015625 52.60424805 77.8828125 C55.23557037 78.23152241 57.72561529 78.27882558 60.375 78.25 C63.45986251 78.99109002 66.39799724 80.15872333 69.375 81.25 C70.43976563 81.61351562 71.50453125 81.97703125 72.6015625 82.3515625 C79.41234409 84.77839272 84.20452939 87.19442873 89.375 92.25 C90.035 92.58 90.695 92.91 91.375 93.25 C91.601875 92.425 91.82875 91.6 92.0625 90.75 C93.33071494 87.36809349 94.80513531 84.78249893 96.76171875 81.78125 C98.03788988 79.77892823 99.25834144 77.76716449 100.45703125 75.71875 C104.68729706 68.49859667 109.02980102 61.71528047 114.375 55.25 C115.303125 53.950625 115.303125 53.950625 116.25 52.625 C122.35581644 45.80085222 129.28605452 41.20324835 138.4375 39.97265625 C145.19728618 39.64258857 150.19161255 41.73842408 155.625 45.5 C164.60351002 55.43262961 163.52351455 74.89358921 163.375 87.25 C162.99391585 90.8067854 162.42917726 94.06218549 161.4375 97.5 C160.58358314 100.5138242 160.10631368 103.17262991 159.6875 106.25 C158.37538137 113.86028804 154.80001734 120.40769674 151.375 127.25 C150.99988281 128.07113281 150.62476563 128.89226562 150.23828125 129.73828125 C146.16038696 138.59952833 140.19315624 144.07497624 131.375 148.25 C123.21746702 151.1942385 116.62616865 152.38544409 108.375 149.25 C107.73304688 149.04375 107.09109375 148.8375 106.4296875 148.625 C99.30394592 146.24072145 94.37889854 142.24770624 90.5390625 135.76953125 C88.1075613 130.50671826 86.78342535 124.85608522 85.375 119.25 C85.17390625 118.45078125 84.9728125 117.6515625 84.765625 116.828125 C84.63671875 116.30734375 84.5078125 115.7865625 84.375 115.25 C79.72816322 119.15121254 75.42864588 123.22349301 71.25 127.625 C65.33492429 133.6906526 58.71041683 138.07164931 51.375 142.25 C50.29734375 142.86617187 49.2196875 143.48234375 48.109375 144.1171875 C35.68249435 150.74289401 17.78930687 159.16032983 3.375 157.25 C-0.06024225 156.12778819 -3.34208219 154.75691309 -6.625 153.25 C-6.72186921 163.97019308 -6.70915403 174.66475986 -6.1875 185.375 C-6.14826416 186.22094727 -6.10902832 187.06689453 -6.06860352 187.93847656 C-5.89232608 191.23936459 -5.67536698 194.09889905 -4.625 197.25 C-4.60546875 199.40625 -4.60546875 199.40625 -4.8125 201.75 C-4.86792969 202.5234375 -4.92335938 203.296875 -4.98046875 204.09375 C-5.85818132 207.0300975 -6.95086712 207.80341276 -9.625 209.25 C-12.24609375 209.61328125 -12.24609375 209.61328125 -15.0625 209.5625 C-15.98933594 209.55863281 -16.91617188 209.55476562 -17.87109375 209.55078125 C-20.82902907 209.22771597 -22.9794664 208.60680025 -25.625 207.25 C-27.78454474 204.01068288 -27.89291031 203.03046879 -27.97267151 199.27783203 C-27.99921814 198.25151672 -28.02576477 197.22520142 -28.05311584 196.16778564 C-28.07240646 195.04249451 -28.09169708 193.91720337 -28.11157227 192.7578125 C-28.13951874 191.57225769 -28.16746521 190.38670288 -28.19625854 189.16522217 C-28.27119404 185.91333413 -28.33763743 182.66140042 -28.40064359 179.40926361 C-28.46881407 176.00721085 -28.54861396 172.60543322 -28.62742615 169.20361328 C-28.77514811 162.75818593 -28.91384236 156.31260122 -29.04864401 149.86689186 C-29.29019108 138.3217855 -29.54301995 126.7769319 -29.80515331 115.23227501 C-29.88172867 111.84471124 -29.95587825 108.45712548 -30.0248127 105.06939697 C-30.10193376 101.29356565 -30.18440042 97.51788403 -30.26782227 93.7421875 C-30.29979454 92.05425079 -30.29979454 92.05425079 -30.33241272 90.33221436 C-30.35613953 89.30589905 -30.37986633 88.27958374 -30.40431213 87.22216797 C-30.42291574 86.32915985 -30.44151934 85.43615173 -30.46068668 84.51608276 C-30.54336937 82.08357362 -30.54336937 82.08357362 -31.625 79.25 C-31.90155911 74.15956205 -31.93840898 69.06965915 -31.97509766 63.97241211 C-31.99164784 62.28770118 -32.01892594 60.6030602 -32.05712891 58.91870117 C-32.11208977 56.48058936 -32.1337983 54.0441178 -32.1484375 51.60546875 C-32.17110687 50.85839157 -32.19377625 50.11131439 -32.21713257 49.34159851 C-32.20124009 45.37906392 -31.69064991 42.84927175 -29.22143555 39.81225586 C-25.5543102 36.19340485 -23.81174677 35.3630235 -18.6875 34.875 C-10.29266442 35.06990497 -1.88656357 37.60360758 4.375 43.25 C6.69093124 46.18351291 7.38923529 47.55247068 7.3125 51.3125 C6.26054463 54.60862684 4.99850121 56.04964415 2.375 58.25 C22.26289403 51.94102521 43.31301886 43.48456432 60.375 31.25 C60.87 30.26 60.87 30.26 61.375 29.25 C60.51628044 29.25999275 60.51628044 29.25999275 59.64021301 29.27018738 C53.62063275 29.33714322 47.60116019 29.38204743 41.58129883 29.41479492 C39.34199722 29.42977622 37.10272442 29.45016833 34.86352539 29.47631836 C11.67267177 29.74014471 11.67267177 29.74014471 0.375 26.25 C-1.62320361 25.76339642 -3.62302346 25.28334033 -5.625 24.8125 C-11.21366649 23.25873683 -14.38185066 21.11472402 -17.625 16.25 C-18.22449547 11.65646326 -18.17683406 7.511335 -16.3125 3.25 C-13.5992823 0.03433457 -10.88614759 -1.35515111 -6.7265625 -1.8515625 C-4.16520835 -1.72777959 -2.36832084 -0.98492073 0 0 Z M139.375 68.25 C127.19348821 77.80536769 115.95311476 94.65493324 113.375 110.25 C112.89589502 115.29429105 112.72681764 119.6295441 114.625 124.375 C116.59271549 126.4832666 117.62754567 126.69369726 120.375 127.25 C129.83484391 117.79015609 133.69114599 104.87379943 137.75 92.4375 C138.09595215 91.38836426 138.4419043 90.33922852 138.79833984 89.25830078 C140.80119697 82.91073805 142.02972492 76.90162286 142.375 70.25 C141.385 69.59 140.395 68.93 139.375 68.25 Z M-6.625 93.25 C-6.93679922 96.00014317 -6.93679922 96.00014317 -6.890625 99.2109375 C-6.89320312 100.40460938 -6.89578125 101.59828125 -6.8984375 102.828125 C-6.89070313 104.08109375 -6.88296875 105.3340625 -6.875 106.625 C-6.88273437 107.87023437 -6.89046875 109.11546875 -6.8984375 110.3984375 C-6.89585938 111.5946875 -6.89328125 112.7909375 -6.890625 114.0234375 C-6.88836914 115.12091309 -6.88611328 116.21838867 -6.88378906 117.34912109 C-6.63071665 120.18591956 -6.09414601 121.84348923 -4.625 124.25 C-2.49323936 122.34042286 -0.3696755 120.42291237 1.75 118.5 C2.35328125 117.96117187 2.9565625 117.42234375 3.578125 116.8671875 C4.15820312 116.33867187 4.73828125 115.81015625 5.3359375 115.265625 C5.87009277 114.78383789 6.40424805 114.30205078 6.95458984 113.80566406 C8.5300346 112.08020274 9.42497548 110.37452742 10.375 108.25 C11.035 108.25 11.695 108.25 12.375 108.25 C14.08279973 106.62550757 15.75050757 104.95779973 17.375 103.25 C18.375 102.25 18.375 102.25 21.375 102.125 C24.375 102.25 24.375 102.25 25.375 103.25 C25.25469504 110.22768743 23.18109122 115.78508067 20.45874023 122.10791016 C19.21908431 125.00456907 18.375 127.06111683 18.375 130.25 C32.3140187 129.12392207 43.0269019 120.04878401 52.375 110.25 C54.24783497 107.97105556 55.8145453 105.75787362 57.375 103.25 C55.65542297 99.96750347 55.65542297 99.96750347 52.27734375 99.37109375 C50.95832961 99.12862916 49.63638278 98.90179362 48.3125 98.6875 C47.60875244 98.56455566 46.90500488 98.44161133 46.17993164 98.31494141 C39.5548752 97.1957699 32.89350892 96.39940272 26.21484375 95.6796875 C21.27514726 95.1269239 16.52593678 94.58734354 11.75 93.1875 C8.72426786 92.34701885 6.47252598 92.15889629 3.375 92.25 C3.045 91.92 2.715 91.59 2.375 91.25 C-2.65009316 90.70584266 -2.65009316 90.70584266 -6.625 93.25 Z " transform="translate(128.625,317.75)" style="fill: #000000;"/><path d="M0 0 C1.44430855 2.88861709 1.37688506 4.79647701 1 8 C-2.97560244 13.43332333 -9.73481338 17.06676259 -16.28515625 18.5 C-18.18384397 18.72713274 -20.09230637 18.86843492 -22 19 C-33.64750132 21.4706821 -42.78083285 27.85974414 -51.625 35.5 C-52.17075684 35.95060791 -52.71651367 36.40121582 -53.27880859 36.86547852 C-55.82670607 39.14853634 -56.95370657 40.46039219 -57.25 43.9140625 C-55.50064869 48.23277354 -52.75203023 50.74170849 -49.375 53.875 C-48.08690174 55.11548688 -46.8004245 56.35765934 -45.515625 57.6015625 C-44.90138672 58.19098633 -44.28714844 58.78041016 -43.65429688 59.38769531 C-40.55045428 62.41275088 -37.75111858 65.65643756 -35 69 C-34.33484375 69.78761719 -33.6696875 70.57523437 -32.984375 71.38671875 C-29.16572748 76.00445362 -25.87083273 80.57345182 -23.10546875 85.89453125 C-22.00644928 88.07229456 -22.00644928 88.07229456 -20.49609375 90.28125 C-18.66044795 93.61704497 -17.76512301 97.01663269 -16.875 100.6875 C-15.77682418 105.46166487 -15.77682418 105.46166487 -14 110 C-10.95813355 125.54041974 -12.44723921 145.22662163 -20.6875 158.9375 C-25.46746716 165.41942517 -32.20968239 170.71269068 -40 173 C-43.26089767 173.43304665 -46.46373974 173.47605215 -49.75 173.4375 C-50.63381348 173.43137695 -51.51762695 173.42525391 -52.42822266 173.41894531 C-63.09295748 173.16422999 -71.67337642 170.0602924 -79.5 162.625 C-80.325 161.75875 -81.15 160.8925 -82 160 C-82.99 159.175 -83.98 158.35 -85 157.5 C-91.00997326 151.50555638 -93.84268879 141.33749423 -94 133 C-93.34 132.34 -92.68 131.68 -92 131 C-88.67364843 131.12751014 -87.26434738 131.76124964 -84.78125 134.00390625 C-83.65203125 135.27041016 -83.65203125 135.27041016 -82.5 136.5625 C-76.05161347 143.30135439 -67.54584721 150.24974368 -57.95703125 151.203125 C-51.53526104 151.34349156 -45.20362306 150.77236611 -40.171875 146.41796875 C-34.62472364 140.23801129 -33.68974175 134.90808342 -33.8125 126.8125 C-33.81314453 125.99330078 -33.81378906 125.17410156 -33.81445312 124.33007812 C-33.73324095 120.02909045 -33.73324095 120.02909045 -35 116 C-35.061875 114.7625 -35.12375 113.525 -35.1875 112.25 C-37.22196901 93.10749614 -52.49436215 79.3411114 -66.25390625 67.51953125 C-72.1809953 62.36150521 -76.73846293 56.54450336 -81 50 C-85.13545135 58.39534916 -87.5061755 67.20916588 -90 76.1875 C-90.42906163 77.71436872 -90.85874547 79.24106274 -91.2890625 80.76757812 C-91.92375894 83.01963945 -92.55670003 85.27209566 -93.18312073 87.526474 C-94.16167958 91.04678281 -95.15936412 94.55793917 -96.21850586 98.05493164 C-96.58854736 99.28977295 -96.95858887 100.52461426 -97.33984375 101.796875 C-97.83665649 103.41674316 -97.83665649 103.41674316 -98.34350586 105.06933594 C-99.00399087 108.01781569 -99.00666292 110.09494595 -98.5625 113.0625 C-97.90643979 117.65492145 -98.50025128 118.30901475 -101 122 C-105.80120952 129.35281095 -108.78601406 136.49184551 -111.375 144.875 C-114.0697138 153.30553075 -116.90926445 161.57885717 -120.3125 169.75 C-124.61678214 180.20668931 -127.66536943 190.3873131 -128.9375 201.6875 C-129.90179696 209.67858697 -131.85198928 218.15967519 -137.5 224.25 C-142.93797255 226.96898627 -148.0453126 226.77933012 -154 226 C-157.79367443 224.58540953 -159.09290763 223.5490838 -161.109375 220.10546875 C-162.69404914 215.71771534 -162.43149239 212.92525077 -160.45703125 208.69140625 C-159.73284673 207.41269359 -158.99617786 206.1410047 -158.25 204.875 C-153.63338296 197.00798135 -150.78657122 188.88666784 -148.1875 180.1875 C-147.98677887 179.51666382 -147.78605774 178.84582764 -147.57925415 178.15466309 C-147.27475845 177.1359613 -147.27475845 177.1359613 -146.96411133 176.09667969 C-146.54384182 174.69073749 -146.12351214 173.28481328 -145.703125 171.87890625 C-145.38501106 170.81160782 -145.38501106 170.81160782 -145.06047058 169.7227478 C-143.39973804 164.20043491 -141.5965812 158.73472855 -139.734375 153.27734375 C-139.45962845 152.46974106 -139.1848819 151.66213837 -138.90180969 150.83006287 C-137.81961041 147.65475442 -136.73543672 144.48032231 -135.63192749 141.31234741 C-130.08781131 127.75796318 -130.08781131 127.75796318 -131.37109375 113.9609375 C-132.39396484 112.68089844 -132.39396484 112.68089844 -133.4375 111.375 C-137.74277051 105.52463241 -140.91132821 99.53727724 -144.03515625 92.9921875 C-145.26219269 90.43018938 -146.57173635 87.99025238 -148.05859375 85.5703125 C-154.01746053 75.37909166 -155.2374738 64.03276462 -152.38037109 52.49853516 C-150.80467803 47.4577433 -149.16297852 44.50566612 -145 41 C-144.67 40.67 -144.34 40.34 -144 40 C-140.28406938 39.57001374 -138.48762293 39.68924608 -135.296875 41.72265625 C-126.60500178 49.70798149 -126.60500178 49.70798149 -126 56 C-126.375 58.4375 -126.375 58.4375 -127 61 C-127.91616019 70.89453007 -124.64554304 81.34784248 -120 90 C-116.61025926 82.91869229 -114.19233498 75.67603201 -111.96289062 68.1628418 C-111.37829025 66.19855541 -110.77963423 64.23894284 -110.1796875 62.27929688 C-108.10622922 55.40733171 -106.49328063 48.63948808 -105.42578125 41.53930664 C-104.16608433 34.02663021 -101.12622193 26.50682364 -94.81640625 21.94140625 C-91.49475459 20.21986206 -89.64362047 20.16899884 -86 21 C-83.07119845 23.08831801 -80.51771542 25.43650793 -78 28 C-77.5875 27.62488281 -77.175 27.24976563 -76.75 26.86328125 C-76.1725 26.35152344 -75.595 25.83976562 -75 25.3125 C-74.443125 24.81363281 -73.88625 24.31476563 -73.3125 23.80078125 C-66.46793308 18.470806 -58.72323894 14.7046774 -50.98291016 10.86108398 C-49.1327026 9.94132903 -47.28691788 9.01311925 -45.44140625 8.08398438 C-14.44743693 -7.43234571 -14.44743693 -7.43234571 0 0 Z " transform="translate(441,279)" style="fill: #000000;"/><path d="M0 0 C5.2128832 0.07460298 8.64336729 1.85153746 12.625 5.1875 C15.0139202 8.10729136 15.36460118 10.17610962 15.18237305 13.93212891 C15.06418213 14.93679199 14.94599121 15.94145508 14.82421875 16.9765625 C14.62989258 18.64912109 14.62989258 18.64912109 14.43164062 20.35546875 C14.28919922 21.51691406 14.14675781 22.67835938 14 23.875 C13.86916016 25.01324219 13.73832031 26.15148437 13.60351562 27.32421875 C12.80529009 34.04165295 11.76746463 40.64301405 10.3125 47.25 C12.0057905 46.72568162 13.69896314 46.20098018 15.39160156 45.67456055 C16.85129623 45.22099146 18.31159511 44.76936278 19.77246094 44.31958008 C24.08973838 42.98095909 28.3236711 41.51015062 32.5625 39.9375 C38.35818859 37.98710411 44.242157 37.19552727 50.3125 38.25 C52.88453393 40.16652636 53.25117191 40.89736348 53.8125 44.125 C53.14333374 48.30728911 51.51006939 49.5498303 48.3125 52.25 C47.1678125 53.2709375 47.1678125 53.2709375 46 54.3125 C39.7262731 58.83541939 32.23111678 61.68141698 25.1875 64.8125 C15.07695694 68.54912771 15.07695694 68.54912771 7.3125 75.25 C7.10844479 77.46997324 7.10844479 77.46997324 7.25 79.8125 C7.41020992 84.05458015 7.41020992 84.05458015 6.3125 86.25 C6.21773063 88.25576988 6.1873559 90.26469777 6.18652344 92.27270508 C6.18081329 94.17026299 6.18081329 94.17026299 6.17498779 96.1061554 C6.174697 97.12338904 6.174697 97.12338904 6.17440033 98.16117287 C6.17098572 101.0119813 6.14962314 103.86256146 6.12916946 106.71329021 C6.09114854 112.02186228 6.05988341 117.33019227 6.06201172 122.63891602 C6.06279954 126.33090843 6.03940547 130.02206761 6.0001297 133.71384239 C5.98967713 135.11917053 5.98814034 136.52459494 5.99578094 137.92994118 C6.00541997 139.89968549 5.98142305 141.8695068 5.95605469 143.83911133 C5.95240906 144.95892899 5.94876343 146.07874664 5.94500732 147.23249817 C5.11441831 151.19498806 3.38813027 152.70908618 0.3125 155.25 C-3.66859872 156.46393351 -6.94329803 155.63827929 -10.5625 153.75 C-16.01254203 147.33818585 -14.95199359 138.15142542 -14.8828125 130.21875 C-14.8799826 128.98709106 -14.87715271 127.75543213 -14.87423706 126.4864502 C-14.86309202 122.57419898 -14.83799749 118.66218138 -14.8125 114.75 C-14.80132966 112.08854502 -14.79333833 109.42709223 -14.78515625 106.765625 C-14.76317124 100.26033771 -14.72975017 93.75518555 -14.6875 87.25 C-16.86371703 89.94236589 -18.24362435 92.30107005 -19.32568359 95.58447266 C-19.75160294 96.85697372 -19.75160294 96.85697372 -20.18612671 98.15518188 C-20.48306427 99.06561249 -20.78000183 99.97604309 -21.0859375 100.9140625 C-21.40277496 101.86131195 -21.71961243 102.8085614 -22.04605103 103.78451538 C-23.39721163 107.82487551 -24.73107449 111.87089033 -26.06640625 115.91650391 C-27.0460452 118.87607 -28.03456605 121.83257086 -29.0234375 124.7890625 C-29.3163266 125.68734772 -29.6092157 126.58563293 -29.91098022 127.51113892 C-34.92240618 142.48490618 -34.92240618 142.48490618 -38.6875 146.25 C-46.79872671 146.85341028 -52.87161734 146.78164728 -59.5625 141.875 C-61.11746545 139.62893879 -60.90359829 137.91521224 -60.6875 135.25 C-61.3475 135.25 -62.0075 135.25 -62.6875 135.25 C-62.75066406 136.26449219 -62.81382812 137.27898437 -62.87890625 138.32421875 C-63.74556097 145.16583442 -66.31032634 151.60275506 -68.625 158.0625 C-68.86948883 158.75052704 -69.11397766 159.43855408 -69.36587524 160.14743042 C-73.25482583 171.03000915 -77.73063181 181.28057791 -83.56152344 191.28320312 C-84.64162286 193.16986421 -85.64605002 195.07883577 -86.6328125 197.015625 C-92.69115204 208.69221566 -101.38075912 220.04813794 -113.46875 225.84375 C-116.48919174 226.39678863 -118.00721455 225.68788409 -120.6875 224.25 C-126.42354415 219.13479827 -131.32145464 211.88895032 -131.92578125 204.11328125 C-131.20282663 195.4259741 -128.05872975 185.76445939 -123.6875 178.25 C-120.69011059 176.25174039 -120.05402492 175.97449602 -116.6875 176 C-116.006875 175.99484375 -115.32625 175.9896875 -114.625 175.984375 C-112.6875 176.25 -112.6875 176.25 -109.6875 178.25 C-109.39453125 180.6328125 -109.39453125 180.6328125 -109.5 183.375 C-109.52707031 184.28507813 -109.55414063 185.19515625 -109.58203125 186.1328125 C-109.61683594 186.83148438 -109.65164063 187.53015625 -109.6875 188.25 C-106.36789161 184.40663117 -104.02262787 180.35398638 -101.8125 175.8125 C-101.46662842 175.10875244 -101.12075684 174.40500488 -100.7644043 173.67993164 C-92.48524484 156.67238565 -82.56222039 136.0374671 -82.70703125 116.6328125 C-82.67975524 113.30513939 -81.62207057 110.43572595 -80.6875 107.25 C-77.51395971 89.93800796 -77.51395971 89.93800796 -81.6875 73.25 C-83.88420769 70.98489665 -86.20552261 69.03616048 -88.65234375 67.046875 C-91.38700952 64.63239083 -92.23571848 62.86425213 -92.6875 59.25 C-92.65213973 55.61496416 -92.22677641 52.36004341 -90.6171875 49.046875 C-87.73146455 46.35976456 -84.74951722 46.5672559 -81 46.625 C-80.27828613 46.63265381 -79.55657227 46.64030762 -78.81298828 46.64819336 C-73.46884141 46.87101711 -70.16109433 47.82972213 -66.29296875 51.484375 C-65.76316406 52.06703125 -65.23335938 52.6496875 -64.6875 53.25 C-63.84638672 54.06210938 -63.84638672 54.06210938 -62.98828125 54.890625 C-54.35693295 63.83546053 -54.6141166 76.48187131 -54.0625 88.1875 C-53.98515625 89.62319336 -53.98515625 89.62319336 -53.90625 91.08789062 C-53.86242187 91.99603516 -53.81859375 92.90417969 -53.7734375 93.83984375 C-53.7326709 94.66347412 -53.6919043 95.48710449 -53.64990234 96.33569336 C-53.6875 98.25 -53.6875 98.25 -54.6875 99.25 C-54.95986944 100.61557062 -55.17793182 101.99208806 -55.37109375 103.37109375 C-55.49419922 104.22509766 -55.61730469 105.07910156 -55.74414062 105.95898438 C-55.86982422 106.85939453 -55.99550781 107.75980469 -56.125 108.6875 C-57.09709329 115.59502008 -58.24944006 122.42311556 -59.6875 129.25 C-53.91309399 117.60447379 -48.53063408 105.82555096 -43.5625 93.8125 C-43.07740967 92.65838623 -42.59231934 91.50427246 -42.0925293 90.31518555 C-41.6469165 89.22246338 -41.20130371 88.12974121 -40.7421875 87.00390625 C-40.34499512 86.03783447 -39.94780273 85.0717627 -39.53857422 84.07641602 C-38.19190546 79.60413138 -38.09033786 76.44432427 -40.1875 72.25 C-41.9049507 68.8150986 -42.23985733 67.03759313 -41.6875 63.25 C-38.55659092 56.98818185 -34.21174303 54.42474768 -27.6875 52.25 C-26.57187052 50.66890329 -26.57187052 50.66890329 -25.72070312 48.69726562 C-25.21132202 47.61022339 -25.21132202 47.61022339 -24.69165039 46.5012207 C-24.36028076 45.75831787 -24.02891113 45.01541504 -23.6875 44.25 C-23.24168579 43.25262817 -23.24168579 43.25262817 -22.78686523 42.23510742 C-21.89316796 40.19477969 -21.02191735 38.14611828 -20.15625 36.09375 C-19.83845581 35.3471814 -19.52066162 34.60061279 -19.1932373 33.8314209 C-18.18894253 31.471951 -17.18781154 29.11116111 -16.1875 26.75 C-14.86747468 23.63417826 -13.54410746 20.51980682 -12.21875 17.40625 C-11.92383667 16.70705444 -11.62892334 16.00785889 -11.32507324 15.28747559 C-4.95924502 0.33622 -4.95924502 0.33622 0 0 Z M-6.6875 41.25 C-7.36104499 42.68429001 -8.02609701 44.12257057 -8.6875 45.5625 C-9.05875 46.36300781 -9.43 47.16351563 -9.8125 47.98828125 C-10.86790667 50.31213959 -10.86790667 50.31213959 -10.6875 53.25 C-7.2225 52.755 -7.2225 52.755 -3.6875 52.25 C-3.666875 50.991875 -3.64625 49.73375 -3.625 48.4375 C-3.61339844 47.72980469 -3.60179687 47.02210938 -3.58984375 46.29296875 C-3.60486783 44.04694539 -3.60486783 44.04694539 -4.6875 41.25 C-5.3475 41.25 -6.0075 41.25 -6.6875 41.25 Z " transform="translate(383.6875,105.75)" style="fill: #000000;"/><path d="M0 0 C9.77854252 3.36838627 9.77854252 3.36838627 11.328125 4.91796875 C11.85894285 11.51632954 10.39726266 15.97090986 7.828125 21.98046875 C4.35660377 30.6137618 3.45586912 37.65544206 4.328125 46.91796875 C2.60546875 47.6640625 2.60546875 47.6640625 0.328125 47.91796875 C-5.59747822 43.60362079 -10.37510238 37.43932189 -13.671875 30.91796875 C-14.20425781 29.89316406 -14.73664063 28.86835938 -15.28515625 27.8125 C-17.22604178 23.19859744 -17.07503504 18.6660016 -16.984375 13.73046875 C-16.98759766 12.84166016 -16.99082031 11.95285156 -16.99414062 11.03710938 C-16.93230761 3.55531463 -16.93230761 3.55531463 -14.671875 -0.08203125 C-9.93229829 -2.4518196 -4.86347369 -1.43317257 0 0 Z " transform="translate(319.671875,102.08203125)" style="fill: #000000;"/><path d="M0 0 C5.77482435 5.14712605 5.77482435 5.14712605 6.2734375 9.25 C6.85335737 24.95244567 -4.42887111 35.25766566 -14.4375 46.0625 C-38.14688048 71.31999436 -38.14688048 71.31999436 -51 81 C-52.3303125 82.05574219 -52.3303125 82.05574219 -53.6875 83.1328125 C-64.72705179 91.63201289 -74.87685268 95.74702516 -89 94 C-92.26447677 93.07686992 -93.41161364 92.34187338 -96 90 C-97.375 87.25 -97.375 87.25 -97 84 C-92.12361343 75.6103113 -82.31849955 69.19868965 -75 63 C-72.55975223 60.91987136 -70.12341617 58.83519789 -67.6875 56.75 C-66.81242798 56.00327026 -66.81242798 56.00327026 -65.91967773 55.24145508 C-62.5569581 52.36450933 -59.2598162 49.43142581 -56 46.4375 C-49.28760846 40.33836682 -42.10029853 34.5414033 -34.6484375 29.3671875 C-32.7071984 28.00215996 -32.7071984 28.00215996 -32 25 C-42.00336215 28.34472972 -51.5553051 32.29673501 -61 37 C-61.71784668 37.35690918 -62.43569336 37.71381836 -63.17529297 38.08154297 C-81.32095893 47.18772474 -98.28136115 58.11679663 -115.1875 69.3125 C-115.75509033 69.68673096 -116.32268066 70.06096191 -116.9074707 70.4465332 C-124.24568004 75.29425046 -131.21888799 80.40203693 -138 86 C-148.78898822 94.70932324 -159.95960024 102.7533284 -171.36376953 110.63330078 C-172.94366162 111.72518534 -174.52190097 112.8194656 -176.09838867 113.91625977 C-177.58029832 114.94716034 -179.06596682 115.97268535 -180.5559082 116.99194336 C-183.95423226 119.359531 -186.78197589 121.41052587 -189 125 C-172.97030493 125.66482606 -157.54419129 121.86924389 -142.75 115.9375 C-127.80500621 110.34444929 -102.27746383 104.37146069 -87 110 C-82.08152309 114.50860384 -80.15563407 121.04295262 -79.8125 127.5625 C-79.874375 128.366875 -79.93625 129.17125 -80 130 C-79.34 130 -78.68 130 -78 130 C-77.75121094 129.38253906 -77.50242188 128.76507813 -77.24609375 128.12890625 C-74.24859612 123.00778961 -66.51117306 121.78600817 -61.125 120.3125 C-60.22007812 120.08175781 -59.31515625 119.85101563 -58.3828125 119.61328125 C-56.56880751 119.146398 -54.7770016 118.59233387 -53 118 C-51.96300753 116.25213658 -51.96300753 116.25213658 -51 114 C-50.12852812 112.52744131 -49.25702033 111.05490386 -48.38525391 109.58251953 C-42.19703161 99.01155992 -37.18666354 87.89300984 -32.1418457 76.74511719 C-31.51387786 75.37432916 -30.88586855 74.00356012 -30.2578125 72.6328125 C-29.97372025 71.99387054 -29.68962799 71.35492859 -29.39692688 70.69662476 C-27.88751849 67.4179718 -27.08611806 66.05741204 -24 64 C-18.70513268 62.06285342 -15.149866 63.84813875 -10.26953125 65.9921875 C-6.74124921 69.11359364 -5.46159192 72.32643555 -5 77 C-5.76413413 81.23190725 -7.2254967 85.07612878 -8.8125 89.0625 C-9.20759766 90.11888672 -9.60269531 91.17527344 -10.00976562 92.26367188 C-10.98218718 94.85289071 -11.97894142 97.42966116 -13 100 C-11.906875 99.95875 -10.81375 99.9175 -9.6875 99.875 C-6 100 -6 100 -3 102 C-2.26142466 107.04693151 -3.11678444 109.94989842 -6.15063477 114.03491211 C-6.59592529 114.60089111 -7.04121582 115.16687012 -7.5 115.75 C-7.94980225 116.35271729 -8.39960449 116.95543457 -8.86303711 117.57641602 C-11.00993527 120.44715804 -13.21231867 123.27357105 -15.41015625 126.10546875 C-20.55632537 132.86289664 -20.55632537 132.86289664 -22 141 C-22.33 141.33 -22.66 141.66 -23 142 C-23 143.155 -23 144.31 -23 145.5 C-23 149 -23 149 -24 150 C-24.2176892 152.1334297 -24.37197628 154.27338018 -24.5 156.4140625 C-24.54060547 157.06192719 -24.58121094 157.70979187 -24.62304688 158.37728882 C-24.75308879 160.45961626 -24.87700457 162.54224533 -25 164.625 C-25.12360933 166.68628211 -25.24862493 168.74744723 -25.37695312 170.80844116 C-25.49412675 172.69452392 -25.6065635 174.58089919 -25.71875 176.46728516 C-26 180 -26 180 -26.57275391 183.68652344 C-26.94595256 186.58083895 -26.98613826 188.43649589 -26.3359375 191.2265625 C-26.18382812 191.9484375 -26.03171875 192.6703125 -25.875 193.4140625 C-25.53960321 194.89714519 -25.19838195 196.37892184 -24.8515625 197.859375 C-24.1326499 201.31759253 -23.83277606 203.55999941 -25.1015625 206.8984375 C-28.12105007 210.24099781 -30.67482871 210.91686504 -35.11328125 211.1953125 C-36.16902344 211.17210937 -37.22476563 211.14890625 -38.3125 211.125 C-39.38113281 211.10695313 -40.44976562 211.08890625 -41.55078125 211.0703125 C-42.35902344 211.04710937 -43.16726562 211.02390625 -44 211 C-47.12934241 203.10861479 -48.14898437 196.11889247 -48.31640625 187.6640625 C-48.3475779 186.34503433 -48.3475779 186.34503433 -48.37937927 184.99935913 C-48.44442963 182.20798069 -48.50355148 179.41651329 -48.5625 176.625 C-48.60572762 174.72525145 -48.64934323 172.82551169 -48.69335938 170.92578125 C-48.80006501 166.28394386 -48.90145615 161.64201754 -49 157 C-49.58225342 157.84127441 -50.16450684 158.68254883 -50.7644043 159.54931641 C-52.38733892 161.89412717 -54.01070051 164.23864169 -55.63427734 166.58300781 C-56.98220755 168.52941824 -58.32905413 170.47654792 -59.67431641 172.42480469 C-66.34320966 182.07075851 -73.27154762 191.42520688 -80.75610352 200.45703125 C-81.91268147 201.89168732 -82.98959995 203.38957109 -84.05859375 204.890625 C-86 207 -86 207 -88.19140625 207.59375 C-95.71068136 207.29644752 -103.55948622 206.64039429 -109.6875 201.9375 C-111.66751985 197.50602699 -112.47431979 193.71782334 -111 189 C-108.04345328 185.99796794 -104.66886629 184.03334758 -101 182 C-91.67437714 176.40462628 -85.46717771 167.22868117 -79.0625 158.625 C-78.39154297 157.73683594 -77.72058594 156.84867188 -77.02929688 155.93359375 C-76.39185547 155.08152344 -75.75441406 154.22945312 -75.09765625 153.3515625 C-74.52539307 152.58666504 -73.95312988 151.82176758 -73.36352539 151.03369141 C-71.83554297 148.9493808 -71.83554297 148.9493808 -71 146 C-72.11375 145.54625 -73.2275 145.0925 -74.375 144.625 C-78 143 -78 143 -80 141 C-80.26991906 138.31160615 -80.08737357 135.70858064 -80 133 C-81.5076046 134.5076046 -82.48446632 136.32576237 -83.625 138.125 C-86.24315897 142.09978371 -89.10998596 145.34773523 -92.58203125 148.58984375 C-94.11519425 149.96468248 -94.11519425 149.96468248 -95 152 C-95.66 152 -96.32 152 -97 152 C-97.21398437 152.54011719 -97.42796875 153.08023438 -97.6484375 153.63671875 C-99.48639767 156.85049304 -101.99685868 159.24895202 -104.625 161.8125 C-105.16624512 162.3472998 -105.70749023 162.88209961 -106.26513672 163.43310547 C-109.73811055 166.8399471 -113.31139906 170.08437405 -117.01953125 173.234375 C-119.39235913 175.34979552 -121.59109272 177.60128329 -123.8125 179.875 C-128.04420688 184.15847088 -132.50374556 187.95408896 -137.203125 191.7109375 C-141.97380719 195.61543438 -146.4606936 199.83152953 -151 204 C-152.49406578 205.36071114 -153.99341537 206.71566292 -155.5 208.0625 C-156.1084375 208.61035156 -156.716875 209.15820312 -157.34375 209.72265625 C-159 211 -159 211 -162 212 C-162 212.66 -162 213.32 -162 214 C-163.36328125 215.375 -163.36328125 215.375 -165.3125 217 C-168.73222391 219.89592817 -172.03505933 222.88138076 -175.3125 225.9375 C-178.92046141 229.23649234 -182.57501469 232.23521522 -186.5625 235.0625 C-196.8411895 242.36270561 -205.33305954 251.17805332 -213.4909668 260.74926758 C-218.53761323 266.62698643 -223.94964549 272.09804785 -229.4375 277.5625 C-230.34048828 278.46935547 -231.24347656 279.37621094 -232.17382812 280.31054688 C-237.28590402 285.41521933 -242.48080262 290.33821443 -248 295 C-248.886875 295.75667969 -249.77375 296.51335937 -250.6875 297.29296875 C-262.46415041 306.94106917 -262.46415041 306.94106917 -269.75 307.0625 C-273.78115285 305.74462311 -274.6690276 304.50813683 -277 301 C-278.05999582 298.38424896 -278.76801421 295.73857585 -279.4375 293 C-279.73430664 291.95199219 -279.73430664 291.95199219 -280.03710938 290.8828125 C-280.86837028 287.58267556 -281.2077269 285.50532146 -279.8984375 282.3203125 C-273.45132986 274.44051428 -265.97687183 268.01579482 -257.92602539 261.85400391 C-254.19232089 258.98478884 -250.79618485 256.00805337 -247.546875 252.58984375 C-245.89690707 250.89404337 -244.16737343 249.35675562 -242.375 247.8125 C-238.67286514 244.62174953 -235.08147027 241.32448084 -231.5 238 C-227.31145256 234.11200299 -223.07800115 230.29881492 -218.74609375 226.5703125 C-216.96986504 224.97289876 -215.33509808 223.29150881 -213.6875 221.5625 C-210.95427215 218.77374382 -208.07243758 216.55209448 -204.875 214.3125 C-199.77344624 210.70852169 -195.29870539 206.70083049 -190.76928711 202.42529297 C-187.59558241 199.44054975 -184.37585814 196.6209622 -180.9375 193.9375 C-174.18221195 188.66373175 -167.69848367 182.86718643 -161.7734375 176.671875 C-160 175 -160 175 -158 175 C-158 174.34 -158 173.68 -158 173 C-156.77734375 171.765625 -156.77734375 171.765625 -154.9375 170.25 C-150.73584448 166.68157271 -146.70445883 162.96031751 -142.6875 159.1875 C-137.17886002 154.01682606 -131.61784705 148.91619413 -125.9765625 143.890625 C-123.93455628 142.15013452 -123.93455628 142.15013452 -123 140 C-124.25876953 140.34611328 -124.25876953 140.34611328 -125.54296875 140.69921875 C-133.27199154 142.79508452 -141.02316696 144.76509945 -148.8125 146.625 C-149.67061279 146.83084717 -150.52872559 147.03669434 -151.4128418 147.2487793 C-156.5163499 148.45793019 -161.63039356 149.55339849 -166.7800293 150.54833984 C-168.19459121 150.836137 -169.60226289 151.16227803 -170.99609375 151.5378418 C-182.91604272 154.28692359 -195.92079865 152.65373225 -207.00390625 147.8984375 C-214.6776756 143.0360491 -217.63019388 135.43029392 -220 127 C-220.76986154 121.77025095 -220.94590538 117.82147421 -218.4765625 113.06640625 C-215.35588205 109.20247226 -211.87891622 106.67842807 -207.8125 103.875 C-207.01585937 103.31224365 -206.21921875 102.7494873 -205.3984375 102.16967773 C-202.93969282 100.43559269 -200.47138733 98.71600652 -198 97 C-195.16388191 95.02479047 -192.33019043 93.04619441 -189.5 91.0625 C-188.80479248 90.57555664 -188.10958496 90.08861328 -187.39331055 89.58691406 C-182.18711958 85.91026279 -177.13854113 82.05927117 -172.125 78.125 C-155.89263319 65.40979153 -139.29519345 53.78510189 -121.83398438 42.80419922 C-119.3898261 41.24817496 -116.97666872 39.66017523 -114.578125 38.03515625 C-89.25038488 20.91622383 -60.34288373 7.53895004 -31.11425781 -1.35522461 C-29.1949954 -1.94053316 -27.28801159 -2.56573267 -25.3828125 -3.1953125 C-17.27814264 -5.12321318 -7.20589849 -4.38619908 0 0 Z M-32 103 C-32.86375896 104.61992165 -33.71575854 106.24611861 -34.5625 107.875 C-35.03816406 108.77992188 -35.51382813 109.68484375 -36.00390625 110.6171875 C-36.33261719 111.40351563 -36.66132813 112.18984375 -37 113 C-36.67 113.66 -36.34 114.32 -36 115 C-34.35 114.67 -32.7 114.34 -31 114 C-30.34 110.37 -29.68 106.74 -29 103 C-29.99 103 -30.98 103 -32 103 Z " transform="translate(289,71)" style="fill: #000000;"/></svg>